<?xml version="1.0" encoding="iso-8859-1"?>
<!-- Generator: Adobe Illustrator 19.0.0, SVG Export Plug-In . SVG Version: 6.00 Build 0)  -->
<svg version="1.1" id="Capa_1" xmlns="http://www.w3.org/2000/svg" xmlns:xlink="http://www.w3.org/1999/xlink" x="0px" y="0px"
	 viewBox="0 0 380 380" style="enable-background:new 0 0 380 380;" xml:space="preserve">
<g id="XMLID_2_">
	<path id="XMLID_803_" style="fill:#FF9811;" d="M37.803,239.456C32.745,223.88,30,207.262,30,190s2.745-33.88,7.803-49.456
		l-28.537-9.273C3.26,149.767,0,169.501,0,190s3.26,40.233,9.266,58.729c12.51,38.521,36.986,71.642,69.049,94.979l17.635-24.27
		C68.949,299.786,48.337,271.895,37.803,239.456z"/>
	<path id="XMLID_804_" style="fill:#64C37D;" d="M284.051,319.439C257.65,338.655,225.153,350,190,350s-67.65-11.345-94.051-30.561
		l0,0l-17.635,24.27C109.665,366.527,148.256,380,190,380s80.335-13.473,111.685-36.292L284.051,319.439L284.051,319.439z"/>
	<path id="XMLID_805_" style="fill:#EA348B;" d="M37.803,140.544c10.535-32.439,31.146-60.329,58.146-79.982
		C122.35,41.345,154.847,30,190,30V0c-41.744,0-80.335,13.473-111.686,36.292C46.252,59.629,21.775,92.749,9.266,131.271
		L37.803,140.544L37.803,140.544z"/>
	<path id="XMLID_806_" style="fill:#00D7DF;" d="M370.734,131.27l-28.537,9.273C347.255,156.119,350,172.738,350,190
		s-2.745,33.881-7.803,49.456c-10.534,32.439-31.147,60.329-58.147,79.982l17.635,24.27c32.063-23.337,56.539-56.457,69.049-94.979
		C376.74,230.233,380,210.499,380,190S376.74,149.767,370.734,131.27z"/>
	<path id="XMLID_807_" style="fill:#933EC5;" d="M284.051,60.562c27,19.653,47.612,47.543,58.147,79.982l0,0l28.537-9.273
		c-12.51-38.521-36.986-71.641-69.049-94.978C270.335,13.473,231.744,0,190,0v30C225.153,30,257.65,41.345,284.051,60.562z"/>
	<path id="XMLID_808_" style="fill:#FFDA44;" d="M118.149,288.876l13.734-79.995l-58.114-56.637l0.027-0.004l-35.993-11.696l0,0
		C32.745,156.12,30,172.738,30,190s2.745,33.88,7.803,49.456c10.535,32.439,31.146,60.33,58.146,79.982l0,0l22.211-30.568
		L118.149,288.876z"/>
	<path id="XMLID_809_" style="fill:#91DC5A;" d="M261.85,288.903l-71.898-37.758L118.16,288.87l-22.211,30.568
		C122.35,338.655,154.847,350,190,350s67.65-11.345,94.051-30.561l-22.205-30.56L261.85,288.903z"/>
	<path id="XMLID_810_" style="fill:#F7AED1;" d="M154.132,140.607L190,67.876V30c-35.153,0-67.65,11.345-94.051,30.562
		c-27,19.653-47.612,47.544-58.146,79.982l35.993,11.696L154.132,140.607z"/>
	<path id="XMLID_811_" style="fill:#99EFF2;" d="M306.163,152.253l0.076,0.011l-58.103,56.663l13.71,79.952l22.205,30.56l0,0
		c27-19.653,47.612-47.543,58.147-79.982C347.255,223.881,350,207.262,350,190s-2.745-33.881-7.803-49.456l0,0L306.163,152.253z"/>
	<path id="XMLID_812_" style="fill:#7C84E8;" d="M190.01,67.856l35.931,72.807l80.222,11.59l36.034-11.709
		c-10.534-32.439-31.147-60.329-58.147-79.982C257.65,41.345,225.153,30,190,30v37.876L190.01,67.856z"/>
</g>
<g>
</g>
<g>
</g>
<g>
</g>
<g>
</g>
<g>
</g>
<g>
</g>
<g>
</g>
<g>
</g>
<g>
</g>
<g>
</g>
<g>
</g>
<g>
</g>
<g>
</g>
<g>
</g>
<g>
</g>
</svg>
